<svg width="28" height="28" viewBox="0 0 28 28" fill="none" xmlns="http://www.w3.org/2000/svg">
<path d="M13.8 21.9C14.4075 21.9 14.9 21.4075 14.9 20.8C14.9 20.1925 14.4075 19.7 13.8 19.7C13.1925 19.7 12.7 20.1925 12.7 20.8C12.7 21.4075 13.1925 21.9 13.8 21.9Z" fill="#C17CFB"/>
<path d="M16.8 6.3H10.8C10.5 6.3 10.2 6.6 10.2 6.9V18.3C10.2 18.6 10.5 18.9 10.8 18.9H16.8C17.1 18.9 17.4 18.6 17.4 18.3V6.9C17.4 6.5 17.1 6.3 16.8 6.3Z" fill="#C17CFB"/>
<path d="M13.8 0C6.2 0 0 6.2 0 13.8C0 21.4 6.2 27.6 13.8 27.6C21.4 27.6 27.6 21.4 27.6 13.8C27.6 6.2 21.4 0 13.8 0ZM19.2 20.6C19.2 21.7 18.3 22.5 17.3 22.5H10.4C9.3 22.5 8.5 21.6 8.5 20.6V6.9C8.4 5.9 9.3 5 10.3 5H17.2C18.3 5 19.1 5.9 19.1 6.9V20.6H19.2Z" fill="#C17CFB"/>
</svg>
