<svg width="24" height="24" viewBox="0 0 24 24" fill="none" xmlns="http://www.w3.org/2000/svg">
<path d="M19.7 4.2C17.6 2.1 14.9 1 11.9 1C8.9 1 6.2 2.1 4.2 4.2C2.1 6.3 1 9 1 12C1 15 2.1 17.7 4.2 19.8C6.3 21.9 9 23 12 23C15 23 17.7 21.9 19.8 19.8C21.9 17.7 23 15 23 12C23 9 21.8 6.2 19.7 4.2ZM15.3 4.4C15 3.7 14.7 3 14.4 2.5C15.9 2.9 17.2 3.6 18.4 4.6C17.6 5 16.7 5.4 15.7 5.6C15.6 5.2 15.4 4.8 15.3 4.4ZM14.1 4.8C14.2 5.1 14.3 5.5 14.4 5.9C13.6 6 12.8 6.1 11.9 6.1C11 6.1 10.3 6.1 9.5 5.9C9.6 5.5 9.7 5.2 9.8 4.8C10.4 3.2 11.2 2.2 11.9 2.2C12.7 2.2 13.5 3.2 14.1 4.8ZM8.7 11.3C8.7 9.8 8.9 8.4 9.1 7.2C10 7.3 10.9 7.4 11.9 7.4C12.9 7.4 13.8 7.3 14.7 7.2C15 8.5 15.1 9.9 15.1 11.3H8.7ZM15.2 12.6C15.2 14.1 15 15.5 14.8 16.7C13.9 16.6 13 16.5 12 16.5C11 16.5 10 16.6 9.1 16.7C8.8 15.4 8.7 14 8.7 12.6H15.2ZM8.6 4.4C8.4 4.8 8.3 5.2 8.2 5.7C7.2 5.5 6.3 5.1 5.5 4.7C6.7 3.7 8 3 9.5 2.6C9.2 3 8.9 3.7 8.6 4.4ZM7.9 6.9C7.6 8.3 7.5 9.8 7.4 11.3H2.3C2.4 9.2 3.2 7.2 4.6 5.6C5.6 6.2 6.7 6.6 7.9 6.9ZM7.4 12.6C7.4 14.1 7.6 15.6 7.9 17C6.7 17.3 5.6 17.7 4.6 18.3C3.2 16.7 2.4 14.7 2.3 12.6H7.4ZM8.2 18.2C8.3 18.6 8.5 19.1 8.6 19.5C8.9 20.2 9.2 20.9 9.5 21.4C8 21 6.7 20.3 5.5 19.3C6.3 18.8 7.2 18.5 8.2 18.2ZM9.8 19C9.7 18.7 9.6 18.3 9.5 17.9C10.3 17.8 11.1 17.7 12 17.7C12.8 17.7 13.7 17.8 14.5 17.9C14.4 18.3 14.3 18.6 14.2 19C13.6 20.6 12.8 21.6 12.1 21.6C11.4 21.6 10.4 20.7 9.8 19ZM15.3 19.5C15.4 19.1 15.6 18.7 15.7 18.2C16.7 18.4 17.6 18.8 18.4 19.2C17.2 20.2 15.9 20.9 14.4 21.3C14.7 20.8 15 20.2 15.3 19.5ZM16 17C16.3 15.7 16.4 14.2 16.5 12.6H21.6C21.5 14.7 20.6 16.7 19.3 18.3C18.3 17.7 17.2 17.3 16 17ZM16.5 11.3C16.5 9.8 16.3 8.3 16 6.9C17.2 6.6 18.3 6.2 19.3 5.6C20.7 7.2 21.5 9.2 21.6 11.3H16.5Z" fill="white" stroke="white" stroke-width="0.6875" stroke-miterlimit="10"/>
</svg>
